<?xml version="1.0" encoding="UTF-8"?>
<!DOCTYPE svg PUBLIC "-//W3C//DTD SVG 1.1//EN" "http://www.w3.org/Graphics/SVG/1.1/DTD/svg11.dtd">
<svg xmlns="http://www.w3.org/2000/svg" version="1.1" width="300px" height="133px"
    style="shape-rendering:geometricPrecision; text-rendering:geometricPrecision; image-rendering:optimizeQuality; fill-rule:evenodd; clip-rule:evenodd"
    xmlns:xlink="http://www.w3.org/1999/xlink">
    <g>
        <path style="opacity:0.797" fill="#000000"
            d="M 26.5,-0.5 C 30.5,-0.5 34.5,-0.5 38.5,-0.5C 43.6691,3.59002 49.6691,5.75669 56.5,6C 66.3082,10.6158 70.3082,18.2825 68.5,29C 74.7358,37.4168 74.9024,45.9168 69,54.5C 66.0096,57.4905 62.5096,59.6572 58.5,61C 55.6422,66.356 51.6422,70.5227 46.5,73.5C 42.1667,73.5 37.8333,73.5 33.5,73.5C 31.3893,72.2641 29.3893,70.7641 27.5,69C 10.194,68.3677 2.02734,59.5344 3,42.5C 1.5415,40.5681 0.374833,38.5681 -0.5,36.5C -0.5,32.5 -0.5,28.5 -0.5,24.5C 2.07812,18.0932 6.74479,13.9265 13.5,12C 16.4349,6.22881 20.7683,2.06215 26.5,-0.5 Z M 27.5,5.5 C 30.8499,5.33499 34.1832,5.50166 37.5,6C 38.3081,6.30762 38.9747,6.80762 39.5,7.5C 34.7505,10.6253 29.9172,13.6253 25,16.5C 24.6667,23.8333 24.3333,31.1667 24,38.5C 22.4207,36.9588 20.5873,35.7922 18.5,35C 19.3149,27.9133 19.8149,20.7466 20,13.5C 21.3532,9.64987 23.8532,6.9832 27.5,5.5 Z M 48.5,10.5 C 57.9861,11.1507 62.8195,16.1507 63,25.5C 57.8126,22.2396 52.4792,19.2396 47,16.5C 41.048,19.6171 35.2146,22.9505 29.5,26.5C 28.1667,24.5 28.1667,22.5 29.5,20.5C 35.8102,16.8479 42.1435,13.5145 48.5,10.5 Z M 12.5,19.5 C 12.0899,25.6208 12.5899,31.6208 14,37.5C 19.9162,40.8742 25.7495,44.3742 31.5,48C 29.8333,48.8333 28.1667,49.6667 26.5,50.5C 19.3199,47.1473 12.8199,42.8139 7,37.5C 4.83187,32.3431 5.1652,27.3431 8,22.5C 9.12901,20.8588 10.629,19.8588 12.5,19.5 Z M 44.5,22.5 C 51.3505,25.5096 57.8505,29.1762 64,33.5C 67.9969,40.7215 67.1636,47.2215 61.5,53C 61.1667,53.1667 60.8333,53.3333 60.5,53.5C 59.6701,47.8624 59.1701,42.1958 59,36.5C 53.2509,32.7083 47.4176,29.0416 41.5,25.5C 42.7701,24.7124 43.7701,23.7124 44.5,22.5 Z M 34.5,28.5 C 42.2316,29.0614 45.0649,33.0614 43,40.5C 38.3333,45.8333 33.6667,45.8333 29,40.5C 27.0385,34.5773 28.8719,30.5773 34.5,28.5 Z M 48.5,35.5 C 49.8068,36.1534 51.1401,36.8201 52.5,37.5C 53.8571,45.2094 53.6904,52.876 52,60.5C 46.8612,67.8497 40.3612,69.3497 32.5,65C 37.9172,62.2097 43.0839,59.043 48,55.5C 48.4996,48.8417 48.6663,42.175 48.5,35.5 Z M 41.5,46.5 C 42.6935,46.9704 43.3601,47.9704 43.5,49.5C 43.1667,50.5 42.8333,51.5 42.5,52.5C 35.9752,56.5397 29.1418,59.873 22,62.5C 13.4235,61.4452 9.59019,56.7785 10.5,48.5C 15.2689,51.3007 20.1022,53.9674 25,56.5C 30.9634,53.7756 36.4634,50.4423 41.5,46.5 Z" />
    </g>
    <g>
        <path style="opacity:0.855" fill="#000000"
            d="M 95.5,16.5 C 107.382,14.1874 115.549,18.5207 120,29.5C 120.667,36.1667 120.667,42.8333 120,49.5C 118.167,55.3333 114.333,59.1667 108.5,61C 91.0126,64.3369 82.0126,57.1702 81.5,39.5C 80.5574,28.1651 85.2241,20.4985 95.5,16.5 Z M 96.5,24.5 C 99.8499,24.335 103.183,24.5017 106.5,25C 108.726,26.2273 110.226,28.0607 111,30.5C 111.877,37.2494 111.544,43.9161 110,50.5C 105.785,54.6195 100.951,55.4529 95.5,53C 93.9512,51.786 92.7845,50.286 92,48.5C 89.8009,41.3636 90.1343,34.3636 93,27.5C 94.1451,26.3636 95.3117,25.3636 96.5,24.5 Z" />
    </g>
    <g>
        <path style="opacity:0.822" fill="#000000"
            d="M 244.5,17.5 C 247.833,17.5 251.167,17.5 254.5,17.5C 258.897,32.0237 263.897,46.3571 269.5,60.5C 266.5,61.8333 263.5,61.8333 260.5,60.5C 259.431,57.4606 258.265,54.4606 257,51.5C 251.593,52.4732 246.093,52.8066 240.5,52.5C 240.72,60.2818 237.053,63.2818 229.5,61.5C 234.101,46.6961 239.101,32.0294 244.5,17.5 Z M 248.5,26.5 C 251.108,32.1421 253.441,37.9755 255.5,44C 251.459,44.8265 247.459,44.6599 243.5,43.5C 245.779,37.9981 247.446,32.3314 248.5,26.5 Z" />
    </g>
    <g>
        <path style="opacity:0.834" fill="#000000"
            d="M 299.5,17.5 C 299.5,19.8333 299.5,22.1667 299.5,24.5C 296.5,24.5 293.5,24.5 290.5,24.5C 290.5,34.1667 290.5,43.8333 290.5,53.5C 293.5,53.5 296.5,53.5 299.5,53.5C 299.5,56.1667 299.5,58.8333 299.5,61.5C 290.5,61.5 281.5,61.5 272.5,61.5C 272.5,58.8333 272.5,56.1667 272.5,53.5C 275.5,53.5 278.5,53.5 281.5,53.5C 281.5,43.8333 281.5,34.1667 281.5,24.5C 278.5,24.5 275.5,24.5 272.5,24.5C 272.5,22.1667 272.5,19.8333 272.5,17.5C 281.5,17.5 290.5,17.5 299.5,17.5 Z" />
    </g>
    <g>
        <path style="opacity:0.876" fill="#000000"
            d="M 140.5,27.5 C 147.205,26.6702 152.372,29.0035 156,34.5C 158,41.5 158,48.5 156,55.5C 149.851,62.1841 142.851,63.1841 135,58.5C 134.501,62.8206 134.334,67.1539 134.5,71.5C 131.833,71.5 129.167,71.5 126.5,71.5C 126.5,57.1667 126.5,42.8333 126.5,28.5C 129.167,28.5 131.833,28.5 134.5,28.5C 134.351,29.552 134.517,30.552 135,31.5C 136.812,30.0229 138.645,28.6896 140.5,27.5 Z M 141.5,34.5 C 147.421,35.491 149.755,38.991 148.5,45C 149.251,52.5832 145.918,55.5832 138.5,54C 134.197,49.0039 133.531,43.5039 136.5,37.5C 138.145,36.3037 139.811,35.3037 141.5,34.5 Z" />
    </g>
    <g>
        <path style="opacity:0.834" fill="#000000"
            d="M 173.5,27.5 C 186.807,27.4777 192.807,34.1443 191.5,47.5C 184.5,47.5 177.5,47.5 170.5,47.5C 170.294,53.7402 173.294,56.2402 179.5,55C 181.664,54.0857 183.664,52.919 185.5,51.5C 187.332,52.2485 188.999,53.2485 190.5,54.5C 187.552,59.7644 183.052,62.0977 177,61.5C 165.907,61.3465 160.741,55.6798 161.5,44.5C 160.946,35.4167 164.946,29.7501 173.5,27.5 Z M 173.5,34.5 C 179.021,33.0698 182.354,35.0698 183.5,40.5C 179.217,41.4922 174.884,41.8256 170.5,41.5C 170.166,38.509 171.166,36.1757 173.5,34.5 Z" />
    </g>
    <g>
        <path style="opacity:0.848" fill="#000000"
            d="M 210.5,27.5 C 216.682,26.7192 221.182,29.0526 224,34.5C 224.5,43.4938 224.666,52.4938 224.5,61.5C 221.833,61.5 219.167,61.5 216.5,61.5C 216.666,54.4921 216.5,47.4921 216,40.5C 215.574,37.239 213.741,35.5723 210.5,35.5C 208.088,35.4062 206.255,36.4062 205,38.5C 204.5,46.1594 204.334,53.8261 204.5,61.5C 201.5,61.5 198.5,61.5 195.5,61.5C 195.5,50.5 195.5,39.5 195.5,28.5C 199.03,27.9889 202.196,28.6556 205,30.5C 206.876,29.3913 208.709,28.3913 210.5,27.5 Z" />
    </g>
</svg>